<svg id="Layer_1" data-name="Layer 1" xmlns="http://www.w3.org/2000/svg" xmlns:xlink="http://www.w3.org/1999/xlink" viewBox="0 0 754 295"><defs><style>.cls-1{fill:url(#linear-gradient);}.cls-2{fill:url(#linear-gradient-2);}.cls-3{fill:url(#linear-gradient-3);}.cls-4{fill:#fff;}</style><linearGradient id="linear-gradient" x1="75.53" y1="139.75" x2="206.67" y2="146.46" gradientUnits="userSpaceOnUse"><stop offset="0" stop-color="#fff"/><stop offset="0.5" stop-color="#d0a759"/><stop offset="0.99" stop-color="#3c0f40"/></linearGradient><linearGradient id="linear-gradient-2" x1="291.85" y1="-557.28" x2="392.82" y2="-557.28" gradientTransform="matrix(0.87, 0.5, -0.5, 0.87, -380.62, 452.14)" gradientUnits="userSpaceOnUse"><stop offset="0" stop-color="#67196f"/><stop offset="1"/></linearGradient><linearGradient id="linear-gradient-3" x1="337.02" y1="-574.12" x2="430.69" y2="-574.12" gradientTransform="matrix(0.87, 0.5, -0.5, 0.87, -380.62, 452.14)" gradientUnits="userSpaceOnUse"><stop offset="0" stop-color="#fff"/><stop offset="0.87" stop-color="#67196f"/></linearGradient></defs><path class="cls-1" d="M185.35,200.61a57.56,57.56,0,1,1,0-113.42,60.57,60.57,0,0,1,6.07-.68,67.16,67.16,0,1,0,0,114.78A55,55,0,0,1,185.35,200.61Z"/><path class="cls-2" d="M174.16,144.93a59.53,59.53,0,0,1,45.06-57.7,59.57,59.57,0,1,0-1.92,114.91A59.54,59.54,0,0,1,174.16,144.93Z"/><path class="cls-3" d="M233.71,85.38a59.61,59.61,0,0,0-14.49,1.85,59.49,59.49,0,0,1-1.92,114.91A59.54,59.54,0,1,0,233.71,85.38Z"/><path class="cls-4" d="M373.56,180.09a31.13,31.13,0,0,1-13.47-2.7,26.84,26.84,0,0,1-9.42-7.27A32.14,32.14,0,0,1,345.09,160,34.45,34.45,0,0,1,343.23,149v-2a35.09,35.09,0,0,1,1.86-11.27,30.2,30.2,0,0,1,5.64-10,28.15,28.15,0,0,1,9.41-7.16,30.25,30.25,0,0,1,13.19-2.7,31.74,31.74,0,0,1,13.59,2.82,24.35,24.35,0,0,1,9.69,7.94,23,23,0,0,1,4.11,12.12H390.35a14.7,14.7,0,0,0-5.18-9.41q-4.4-3.78-11.84-3.78a18.58,18.58,0,0,0-10.71,2.93,17.9,17.9,0,0,0-6.42,8,31.49,31.49,0,0,0,0,22.82,18,18,0,0,0,6.48,8.12,18.76,18.76,0,0,0,10.88,3,19.85,19.85,0,0,0,8.79-1.81,15.83,15.83,0,0,0,6-4.84,14.05,14.05,0,0,0,2.71-6.88H401.4a22.18,22.18,0,0,1-4.11,12.29,25.32,25.32,0,0,1-9.92,8.06A32.31,32.31,0,0,1,373.56,180.09Z"/><path class="cls-4" d="M410.42,178.06V95.77h10.82v49.15h-2.71a45.89,45.89,0,0,1,2.31-15.38,20.25,20.25,0,0,1,7.16-10q4.85-3.5,12.4-3.5h.45q10.83,0,16.35,7.16t5.52,20.46v34.38H451.9V141.43q0-7.34-4.11-11.39A14.57,14.57,0,0,0,437.13,126a14.8,14.8,0,0,0-11.55,4.8q-4.33,4.78-4.34,12.56v34.72Z"/><path class="cls-4" d="M493.61,179.64a27.18,27.18,0,0,1-11.67-2.31,17,17,0,0,1-7.55-6.71A20.11,20.11,0,0,1,471.74,160a18.85,18.85,0,0,1,2.87-10.71,17.57,17.57,0,0,1,8.4-6.48,35.89,35.89,0,0,1,13.3-2.2h16.35v8.11h-16.8q-6.54,0-10,3.16a10.45,10.45,0,0,0-3.49,8.12,10.1,10.1,0,0,0,3.49,8q3.5,3,10,3a19.2,19.2,0,0,0,7.33-1.41,12.81,12.81,0,0,0,5.81-4.73q2.31-3.33,2.53-9.19l2.93,4.29a25.49,25.49,0,0,1-3.1,10.76,16.66,16.66,0,0,1-7,6.6A23.63,23.63,0,0,1,493.61,179.64Zm19.73-1.58V160h-1.81V139.17q0-6.19-3.21-9.35t-9.41-3.16q-3.5,0-7.22.11l-7.1.23c-2.25.07-4.21.19-5.86.34v-9.47c1.65-.15,3.4-.28,5.24-.4s3.74-.18,5.69-.22,3.84-.06,5.64-.06q9.24,0,15.1,2.2a16,16,0,0,1,8.68,7.16q2.82,5,2.82,13.41v38.1Z"/><path class="cls-4" d="M536.11,178.06V95.77h10.82v82.29Zm41.48,0L554.93,150H545l27.62-32.12H584l-25,29,.79-5.75,30.32,37Z"/><path class="cls-4" d="M595.06,178.06V117.87h8.57v24.8h-.45q0-13.18,5.8-19.33t17.42-6.15h2v9.7h-3.84q-9,0-13.86,4.79t-4.85,13.81v32.57Z"/><path class="cls-4" d="M652.1,179.64a27.18,27.18,0,0,1-11.67-2.31,17,17,0,0,1-7.55-6.71A20.11,20.11,0,0,1,630.23,160a18.85,18.85,0,0,1,2.87-10.71,17.57,17.57,0,0,1,8.4-6.48,35.89,35.89,0,0,1,13.3-2.2h16.35v8.11h-16.8q-6.54,0-10,3.16a10.46,10.46,0,0,0-3.5,8.12,10.11,10.11,0,0,0,3.5,8q3.49,3,10,3a19.2,19.2,0,0,0,7.33-1.41,12.73,12.73,0,0,0,5.8-4.73q2.31-3.33,2.54-9.19L673,160a25.63,25.63,0,0,1-3.1,10.76,16.66,16.66,0,0,1-7,6.6A23.66,23.66,0,0,1,652.1,179.64Zm19.72-1.58V160H670V139.17q0-6.19-3.21-9.35t-9.41-3.16c-2.34,0-4.74,0-7.22.11l-7.1.23c-2.26.07-4.21.19-5.86.34v-9.47c1.65-.15,3.4-.28,5.24-.4s3.74-.18,5.69-.22,3.83-.06,5.64-.06q9.24,0,15.1,2.2a16.06,16.06,0,0,1,8.68,7.16q2.82,5,2.82,13.41v38.1Z"/></svg>