<svg width="599" height="204" viewBox="0 0 599 204" fill="none" xmlns="http://www.w3.org/2000/svg">
<rect y="4" width="200" height="200" rx="50" fill="#1B24FF"/>
<path d="M80.144 45.672C83.728 45.672 87.0133 46.056 90 46.824C92.9867 47.5067 95.2907 48.1893 96.912 48.872L93.2 64.104C91.4933 63.336 89.616 62.7813 87.568 62.44C85.6053 62.0133 83.7707 61.8 82.064 61.8C79.76 61.8 77.7973 62.1413 76.176 62.824C74.64 63.4213 73.4027 64.2747 72.464 65.384C71.6107 66.4933 70.9707 67.816 70.544 69.352C70.2027 70.888 70.032 72.552 70.032 74.344V77.672H93.584V93.544H70.032V145H50.96V74.088C50.96 65.384 53.392 58.472 58.256 53.352C63.2053 48.232 70.5013 45.672 80.144 45.672ZM155.436 77.672C151.596 90.6427 147.585 102.803 143.404 114.152C139.223 125.501 134.657 136.509 129.708 147.176C127.916 151.016 126.124 154.259 124.332 156.904C122.54 159.635 120.577 161.853 118.444 163.56C116.311 165.352 113.879 166.632 111.148 167.4C108.503 168.253 105.388 168.68 101.804 168.68C98.8173 168.68 96.044 168.381 93.484 167.784C91.0093 167.272 88.9613 166.675 87.34 165.992L90.668 150.76C92.6307 151.443 94.38 151.912 95.916 152.168C97.452 152.424 99.0733 152.552 100.78 152.552C104.193 152.552 106.796 151.613 108.588 149.736C110.465 147.944 112.044 145.427 113.324 142.184C108.972 133.651 104.62 124.093 100.268 113.512C95.916 102.845 91.82 90.8987 87.98 77.672H108.204C109.057 81 110.039 84.6267 111.148 88.552C112.343 92.392 113.58 96.3173 114.86 100.328C116.14 104.253 117.42 108.093 118.7 111.848C120.065 115.603 121.345 119.016 122.54 122.088C123.649 119.016 124.801 115.603 125.996 111.848C127.191 108.093 128.343 104.253 129.452 100.328C130.647 96.3173 131.756 92.392 132.78 88.552C133.889 84.6267 134.871 81 135.724 77.672H155.436Z" fill="white"/>
<path d="M261.66 29.08C266.42 29.08 270.783 29.59 274.75 30.61C278.717 31.5167 281.777 32.4233 283.93 33.33L279 53.56C276.733 52.54 274.24 51.8033 271.52 51.35C268.913 50.7833 266.477 50.5 264.21 50.5C261.15 50.5 258.543 50.9533 256.39 51.86C254.35 52.6533 252.707 53.7867 251.46 55.26C250.327 56.7333 249.477 58.49 248.91 60.53C248.457 62.57 248.23 64.78 248.23 67.16V71.58H279.51V92.66H248.23V161H222.9V66.82C222.9 55.26 226.13 46.08 232.59 39.28C239.163 32.48 248.853 29.08 261.66 29.08ZM361.657 71.58C356.557 88.8067 351.231 104.957 345.677 120.03C340.124 135.103 334.061 149.723 327.487 163.89C325.107 168.99 322.727 173.297 320.347 176.81C317.967 180.437 315.361 183.383 312.527 185.65C309.694 188.03 306.464 189.73 302.837 190.75C299.324 191.883 295.187 192.45 290.427 192.45C286.461 192.45 282.777 192.053 279.377 191.26C276.091 190.58 273.371 189.787 271.217 188.88L275.637 168.65C278.244 169.557 280.567 170.18 282.607 170.52C284.647 170.86 286.801 171.03 289.067 171.03C293.601 171.03 297.057 169.783 299.437 167.29C301.931 164.91 304.027 161.567 305.727 157.26C299.947 145.927 294.167 133.233 288.387 119.18C282.607 105.013 277.167 89.1467 272.067 71.58H298.927C300.061 76 301.364 80.8167 302.837 86.03C304.424 91.13 306.067 96.3433 307.767 101.67C309.467 106.883 311.167 111.983 312.867 116.97C314.681 121.957 316.381 126.49 317.967 130.57C319.441 126.49 320.971 121.957 322.557 116.97C324.144 111.983 325.674 106.883 327.147 101.67C328.734 96.3433 330.207 91.13 331.567 86.03C333.041 80.8167 334.344 76 335.477 71.58H361.657ZM383.906 142.81C388.553 142.81 391.839 142.357 393.766 141.45C395.693 140.543 396.656 138.787 396.656 136.18C396.656 134.14 395.409 132.383 392.916 130.91C390.423 129.323 386.626 127.567 381.526 125.64C377.559 124.167 373.933 122.637 370.646 121.05C367.473 119.463 364.753 117.593 362.486 115.44C360.219 113.173 358.463 110.51 357.216 107.45C355.969 104.39 355.346 100.707 355.346 96.4C355.346 88.0133 358.463 81.3833 364.696 76.51C370.929 71.6367 379.486 69.2 390.366 69.2C395.806 69.2 401.019 69.71 406.006 70.73C410.993 71.6367 414.959 72.6567 417.906 73.79L413.486 93.51C410.539 92.49 407.309 91.5833 403.796 90.79C400.396 89.9967 396.543 89.6 392.236 89.6C384.303 89.6 380.336 91.81 380.336 96.23C380.336 97.25 380.506 98.1567 380.846 98.95C381.186 99.7433 381.866 100.537 382.886 101.33C383.906 102.01 385.266 102.803 386.966 103.71C388.779 104.503 391.046 105.41 393.766 106.43C399.319 108.47 403.909 110.51 407.536 112.55C411.163 114.477 413.996 116.63 416.036 119.01C418.189 121.277 419.663 123.827 420.456 126.66C421.363 129.493 421.816 132.78 421.816 136.52C421.816 145.36 418.473 152.047 411.786 156.58C405.213 161.113 395.863 163.38 383.736 163.38C375.803 163.38 369.173 162.7 363.846 161.34C358.633 159.98 355.006 158.847 352.966 157.94L357.216 137.37C361.523 139.07 365.943 140.43 370.476 141.45C375.009 142.357 379.486 142.81 383.906 142.81ZM449.076 161H423.746V71.58H449.076V161ZM451.456 45.74C451.456 50.3867 449.926 54.07 446.866 56.79C443.919 59.3967 440.406 60.7 436.326 60.7C432.246 60.7 428.676 59.3967 425.616 56.79C422.669 54.07 421.196 50.3867 421.196 45.74C421.196 41.0933 422.669 37.4667 425.616 34.86C428.676 32.14 432.246 30.78 436.326 30.78C440.406 30.78 443.919 32.14 446.866 34.86C449.926 37.4667 451.456 41.0933 451.456 45.74ZM455.036 49.31L480.366 45.23V71.58H510.796V92.66H480.366V124.11C480.366 129.437 481.273 133.687 483.086 136.86C485.013 140.033 488.81 141.62 494.476 141.62C497.196 141.62 499.973 141.393 502.806 140.94C505.753 140.373 508.416 139.637 510.796 138.73L514.366 158.45C511.306 159.697 507.906 160.773 504.166 161.68C500.426 162.587 495.836 163.04 490.396 163.04C483.483 163.04 477.76 162.133 473.226 160.32C468.693 158.393 465.066 155.787 462.346 152.5C459.626 149.1 457.7 145.02 456.566 140.26C455.546 135.5 455.036 130.23 455.036 124.45V49.31ZM506.853 116.97C506.853 109.037 508.043 102.123 510.423 96.23C512.916 90.2233 516.146 85.2367 520.113 81.27C524.08 77.3033 528.613 74.3 533.713 72.26C538.926 70.22 544.253 69.2 549.693 69.2C562.386 69.2 572.416 73.11 579.783 80.93C587.15 88.6367 590.833 100.027 590.833 115.1C590.833 116.573 590.776 118.217 590.663 120.03C590.55 121.73 590.436 123.26 590.323 124.62H532.863C533.43 129.833 535.866 133.97 540.173 137.03C544.48 140.09 550.26 141.62 557.513 141.62C562.16 141.62 566.693 141.223 571.113 140.43C575.646 139.523 579.33 138.447 582.163 137.2L585.563 157.77C584.203 158.45 582.39 159.13 580.123 159.81C577.856 160.49 575.306 161.057 572.473 161.51C569.753 162.077 566.806 162.53 563.633 162.87C560.46 163.21 557.286 163.38 554.113 163.38C546.066 163.38 539.04 162.19 533.033 159.81C527.14 157.43 522.21 154.2 518.243 150.12C514.39 145.927 511.5 140.997 509.573 135.33C507.76 129.663 506.853 123.543 506.853 116.97ZM566.353 107.28C566.24 105.127 565.843 103.03 565.163 100.99C564.596 98.95 563.633 97.1367 562.273 95.55C561.026 93.9633 559.383 92.66 557.343 91.64C555.416 90.62 552.98 90.11 550.033 90.11C547.2 90.11 544.763 90.62 542.723 91.64C540.683 92.5467 538.983 93.7933 537.623 95.38C536.263 96.9667 535.186 98.8367 534.393 100.99C533.713 103.03 533.203 105.127 532.863 107.28H566.353Z" fill="white"/>
</svg>
