<svg width="200" height="200" viewBox="0 0 200 200" fill="none" xmlns="http://www.w3.org/2000/svg">
<rect width="200" height="200" rx="50" fill="#1B24FF"/>
<path d="M80.144 41.672C83.728 41.672 87.0133 42.056 90 42.824C92.9867 43.5067 95.2907 44.1893 96.912 44.872L93.2 60.104C91.4933 59.336 89.616 58.7813 87.568 58.44C85.6053 58.0133 83.7707 57.8 82.064 57.8C79.76 57.8 77.7973 58.1413 76.176 58.824C74.64 59.4213 73.4027 60.2747 72.464 61.384C71.6107 62.4933 70.9707 63.816 70.544 65.352C70.2027 66.888 70.032 68.552 70.032 70.344V73.672H93.584V89.544H70.032V141H50.96V70.088C50.96 61.384 53.392 54.472 58.256 49.352C63.2053 44.232 70.5013 41.672 80.144 41.672ZM155.436 73.672C151.596 86.6427 147.585 98.8027 143.404 110.152C139.223 121.501 134.657 132.509 129.708 143.176C127.916 147.016 126.124 150.259 124.332 152.904C122.54 155.635 120.577 157.853 118.444 159.56C116.311 161.352 113.879 162.632 111.148 163.4C108.503 164.253 105.388 164.68 101.804 164.68C98.8173 164.68 96.044 164.381 93.484 163.784C91.0093 163.272 88.9613 162.675 87.34 161.992L90.668 146.76C92.6307 147.443 94.38 147.912 95.916 148.168C97.452 148.424 99.0733 148.552 100.78 148.552C104.193 148.552 106.796 147.613 108.588 145.736C110.465 143.944 112.044 141.427 113.324 138.184C108.972 129.651 104.62 120.093 100.268 109.512C95.916 98.8453 91.82 86.8987 87.98 73.672H108.204C109.057 77 110.039 80.6267 111.148 84.552C112.343 88.392 113.58 92.3173 114.86 96.328C116.14 100.253 117.42 104.093 118.7 107.848C120.065 111.603 121.345 115.016 122.54 118.088C123.649 115.016 124.801 111.603 125.996 107.848C127.191 104.093 128.343 100.253 129.452 96.328C130.647 92.3173 131.756 88.392 132.78 84.552C133.889 80.6267 134.871 77 135.724 73.672H155.436Z" fill="white"/>
</svg>
